<svg xmlns="http://www.w3.org/2000/svg" viewBox="-10 -10 121 121" fill="#fff" fill-rule="evenodd" stroke="#000" stroke-linecap="round" stroke-linejoin="round" font-family="Roboto" font-size="14" text-anchor="middle"><style><![CDATA[.B{stroke-width:.5}.C{fill:#000}.D{stroke:none}.E{font-size:8px}.F{fill:none}]]></style><use href="#A" x=".5" y=".5"/><symbol id="A" overflow="visible"><path d="M22.308 0L10 15v20l12.308 15h55.385L90 35V15L77.692 0z" class="B"/><path d="M10 15h80" class="B F"/><path d="M90 35H10" class="B F"/><path d="M73.333 10.625c1.847 0 3.333-1.58 3.333-3.542s-1.487-3.542-3.333-3.542L50 7.084zm-23.25-3.542l-23.417 3.542c-1.847 0-3.333-1.58-3.333-3.542s1.487-3.542 3.333-3.542L50 7.084" class="B"/><path d="M73.333 46.041c1.847 0 3.333-1.58 3.333-3.542s-1.487-3.542-3.333-3.542L50 42.5zM50.083 42.5l-23.417 3.542c-1.847 0-3.333-1.58-3.333-3.542s1.487-3.542 3.333-3.542L50 42.5" class="B"/><path d="M10 25h80" class="B F"/><path d="M10 20h84" class="B F"/><path d="M90.003 18.047L86.67 22" class="B F"/><path d="M16.663 18.047L13.33 22" class="B F"/><path d="M23.333 18.047L20 22" class="B F"/><path d="M30.003 18.047L26.67 22" class="B F"/><path d="M36.663 18.047L33.33 22" class="B F"/><path d="M43.333 18.047L40 22" class="B F"/><path d="M50.003 18.047L46.67 22" class="B F"/><path d="M56.663 18.047L53.33 22" class="B F"/><path d="M63.333 18.047L60 22" class="B F"/><path d="M70.003 18.047L66.67 22" class="B F"/><path d="M76.663 18.047L73.33 22" class="B F"/><path d="M83.333 18.047L80 22" class="B F"/><path d="M86.663 18.047L83.33 22" class="B F"/><path d="M80.003 18.047L76.67 22" class="B F"/><path d="M73.333 18.047L70 22" class="B F"/><path d="M66.663 18.047L63.33 22" class="B F"/><path d="M60.003 18.047L56.67 22" class="B F"/><path d="M46.663 18.047L43.33 22" class="B F"/><path d="M53.333 18.047L50 22" class="B F"/><path d="M40.003 18.047L36.67 22" class="B F"/><path d="M33.333 18.047L30 22" class="B F"/><path d="M26.663 18.047L23.33 22" class="B F"/><path d="M20.003 18.047L16.67 22" class="B F"/><path d="M13.333 18.047L10 22" class="B F"/><g transform="matrix(0 1 -1 0 60 70)"><path d="M0 0h25v20H0z" class="B"/></g><g transform="matrix(0 1 -1 0 60 65)"><path d="M5 0Q0 0 0 5v10q0 5 5 5z" class="B"/></g><g transform="matrix(0 1 -1 0 60 95.00005)"><path d="M0 0q5 0 5 5v10q0 5-5 5z" class="B"/></g><path d="M50 65V50" class="B F"/><path d="M0 15h10v20H0z" class="B"/><path d="M94 25c3.324 0 6-2.23 6-5s-2.676-5-6-5z" class="B"/><path d="M5 15v-5" class="B F"/><path d="M2.5 10h5" class="B F"/><g transform="matrix(-1 0 0 -1 5 40)"><path d="M0 5V0" class="B F"/></g><g transform="matrix(-1 0 0 -1 7.5 40)"><path d="M5 0H0" class="B F"/></g></symbol></svg>