<svg xmlns="http://www.w3.org/2000/svg" viewBox="-10 -10 121 151" fill="#fff" fill-rule="evenodd" stroke="#000" stroke-linecap="round" stroke-linejoin="round" font-family="Roboto" font-size="14" text-anchor="middle"><style><![CDATA[.B{stroke:none}.C{fill:#000}.D{font-size:8px}.E{stroke-width:.5}.F{fill:none}.G{stroke-linecap:square}]]></style><use href="#A" x=".5" y=".5"/><symbol id="A" overflow="visible"><path d="M85 85h15" class="E F G"/><path d="M100 77.5v15" class="E F G"/><path d="M35 130h50L58 80z" class="E"/><path d="M59.75 75H57v.151C44.592 76.525 35 87.089 35 100c0 13.85 11.039 25 24.75 25s24.75-11.15 24.75-25c0-.939 0-3-.625-5H90V75z" class="E"/><path d="M60 75V45" stroke-linecap="butt" class="E F"/><circle cx="60" cy="100" r="5" class="E F"/><path d="M50 97.5h10v5H50z" class="B"/><g transform="matrix(0 1 -1 0 70 10)"><path d="M0 0h30v20H0z" class="E"/></g><g transform="matrix(0 1 -1 0 70 5)"><path d="M5 0Q0 0 0 5v10q0 5 5 5z" class="E"/></g><g transform="matrix(0 1 -1 0 70 40)"><path d="M0 0q5 0 5 5v10q0 5-5 5z" class="E"/></g><path d="M0 92v15" class="E F G"/><path d="M60 100H0" class="E F G"/></symbol></svg>