<svg xmlns="http://www.w3.org/2000/svg" viewBox="-10 -10 91 121" fill="#fff" fill-rule="evenodd" stroke="#000" stroke-linecap="round" stroke-linejoin="round" font-family="Roboto" font-size="14" text-anchor="middle"><use href="#A" x=".5" y=".5"/><symbol id="A" overflow="visible"><g stroke-width=".5"><path d="M35 75H5q-5 0-5 5v10q0 5 5 5h30q5 0 5-5V80q0-5-5-5z"/><path d="M10 100h20l-4-5H14zm.003-65V5h20v30z"/><path d="M10.003 35q0 5 5 5h10q5 0 5-5z"/></g><g transform="matrix(0 -1 1 0 10.003 5)"><path d="M0 0q5 0 5 5v10q0 5-5 5z" stroke-width=".5"/></g><g stroke-width=".5"><path d="M19.999 40v35" fill="none" stroke-linecap="butt"/><path d="M5 50h60v5H5z"/><g fill="none" stroke-linecap="butt"><path d="M0 55h70M39.998 85h15V55m.001-5v-5"/><path d="M50.001 45h10"/></g></g></symbol></svg>