<svg xmlns="http://www.w3.org/2000/svg" viewBox="-10 -10 161 101" fill="#fff" fill-rule="evenodd" stroke="#000" stroke-linecap="round" stroke-linejoin="round" font-family="Roboto" font-size="14" text-anchor="middle"><style><![CDATA[.B{stroke-width:.5}.C{fill:#000}.D{stroke:none}.E{fill:none}.F{font-size:60px}.G{font-size:8px}.H{stroke-linecap:butt}.I{stroke-dasharray:1.5 2}]]></style><use href="#A" x=".5" y=".5"/><symbol id="A" overflow="visible"><path d="M30.002 10h100v10h-100z" class="B"/><path d="M30.002 60h100v10h-100z" class="B"/><path d="M119.994 20v15" class="B E"/><path d="M30 65C10 65 0 53.85 0 40s10-25 30-25" class="B E"/><path d="M39.998 10V0" class="B E"/><path d="M45 0H35" class="B E"/><path d="M30.002 15h100" class="B E I"/><path d="M140 10v10" class="B E"/><path d="M30.002 65h100" class="B E I"/><path d="M140 60v10" class="B E"/><path d="M39.998 70v10" class="B E"/><path d="M35 80h10" class="B E"/><path d="M114.996 35h10" class="B E H"/><path d="M114.996 45h10" class="B E H"/><path d="M119.994 45v15" class="B E"/><path d="M130.004 15h10" class="B E H"/><path d="M140.004 65h-10" class="B E H"/></symbol></svg>