<svg xmlns="http://www.w3.org/2000/svg" viewBox="-10 -10 71 41" fill="#fff" fill-rule="evenodd" stroke="#000" stroke-linecap="round" stroke-linejoin="round" font-family="Roboto" font-size="14" text-anchor="middle"><use href="#A" x=".5" y=".5"/><symbol id="A" overflow="visible"><path d="M0 10h50" fill="none" stroke-linecap="butt" stroke-width=".5"/><path d="M40 13.75c0 .693-1.115 1.25-2.5 1.25s-2.5-.557-2.5-1.25c0 .693-1.115 1.25-2.5 1.25s-2.5-.557-2.5-1.25c0 .693-1.115 1.25-2.5 1.25s-2.5-.557-2.5-1.25c0 .693-1.115 1.25-2.5 1.25s-2.5-.557-2.5-1.25c0 .693-1.115 1.25-2.5 1.25s-2.5-.557-2.5-1.25c0 .693-1.115 1.25-2.5 1.25s-2.5-.557-2.5-1.25v-7.5C10 5.558 11.115 5 12.5 5s2.5.558 2.5 1.25C15 5.558 16.115 5 17.5 5s2.5.558 2.5 1.25C20 5.558 21.115 5 22.5 5s2.5.558 2.5 1.25C25 5.558 26.115 5 27.5 5s2.5.558 2.5 1.25C30 5.558 31.115 5 32.5 5s2.5.558 2.5 1.25C35 5.558 36.115 5 37.5 5s2.5.558 2.5 1.25z" stroke-width=".5"/></symbol></svg>