<svg xmlns="http://www.w3.org/2000/svg" viewBox="-10 -10 91 91" fill="#fff" fill-rule="evenodd" stroke="#000" stroke-linecap="round" stroke-linejoin="round" font-family="Roboto" font-size="14" text-anchor="middle"><style><![CDATA[.B{fill:#000}.C{stroke:none}.D{stroke-width:.5}.E{font-size:8px}.F{fill:none}.G{font-size:12px}]]></style><use href="#A" x=".5" y=".5"/><symbol id="A" overflow="visible"><path d="M10 60H0" class="D F"/><path d="M0 55v10" class="D F"/><path d="M60.452 10h9.545" class="D F"/><path d="M70 5v10" class="D F"/><path d="M60.452 60h9.545" class="D F"/><path d="M70 55v10" class="D F"/><path d="M10 10H0" class="D F"/><path d="M0 5v10" class="D F"/><path d="M5 0h10v70H5z" class="D"/><path d="M55.001 0h10v70h-10z" class="D"/><path d="M15 10h40v50H15z" class="D"/><path d="M19 15v40" class="D"/><path d="M38.999 10v50" class="D"/><path d="M22.997 10v50" class="D"/><path d="M30.998 10v50" class="D"/><path d="M35 15v40" class="D"/><path d="M27.001 15v40" class="D"/><path d="M43.003 15v40" class="D"/><path d="M47 10v50" class="D"/><path d="M50.997 15v40" class="D"/></symbol></svg>