<svg xmlns="http://www.w3.org/2000/svg" viewBox="-10 -10 71 141" fill="#fff" fill-rule="evenodd" stroke="#000" stroke-linecap="round" stroke-linejoin="round" font-family="Roboto" font-size="14" text-anchor="middle"><style><![CDATA[.B{stroke-width:.5}.C{fill:#000}.D{stroke:none}.E{font-size:8px}.F{stroke-linecap:square}]]></style><use href="#A" x=".5" y=".5"/><symbol id="A" overflow="visible"><path d="M10 65v50q15 10 30 0V65q-15-10-30 0z" class="B"/><path d="M10 90H0" fill="none" class="B F"/><path d="M0 80v20" fill="none" class="B F"/><path d="M40 90h10" fill="none" class="B F"/><path d="M50 80v20" fill="none" class="B F"/><circle cx="25" cy="78.5" r="10" class="B"/><circle cx="25" cy="103.5" r="10" class="B"/><g transform="matrix(0 1 -1 0 35 5)"><path d="M0 0h30v20H0z" class="B"/></g><g transform="matrix(0 1 -1 0 35 0)"><path d="M5 0Q0 0 0 5v10q0 5 5 5z" class="B"/></g><g transform="matrix(0 1 -1 0 35 35)"><path d="M0 0q5 0 5 5v10q0 5-5 5z" class="B"/></g><path d="M25 40v20" fill="none" class="B F"/></symbol></svg>