<svg xmlns="http://www.w3.org/2000/svg" viewBox="-10 -10 181 51" fill="#fff" fill-rule="evenodd" stroke="#000" stroke-linecap="round" stroke-linejoin="round" font-family="Roboto" font-size="14" text-anchor="middle"><style><![CDATA[.B{stroke-width:.5}.C{fill:#000}.D{stroke:none}.E{stroke-linecap:square}.F{font-size:60px}]]></style><use href="#A" x=".5" y=".5"/><symbol id="A" overflow="visible"><path d="M125.008 5h30v20h-30z" class="B"/><path d="M155.008 5q5 0 5 5v10q0 5-5 5z" class="B"/><path d="M125 5q-5 0-5 5v10q0 5 5 5z" class="B"/><path d="M0 5h100v20H0z" class="B"/><path d="M90 4.979V0" fill="none" class="B E"/><path d="M95.008 0h-10" fill="none" class="B E"/><path d="M10 4.979V0" fill="none" class="B E"/><path d="M15.008 0h-10" fill="none" class="B E"/><use href="#C" class="B E"/><g transform="matrix(-1 0 0 -1 26 19.0313)"><use href="#D" class="B E"/></g><use href="#C" x="16" class="B E"/><g transform="matrix(-1 0 0 -1 42 19.0313)"><use href="#D" class="B E"/></g><use href="#C" x="32" y="0.016" class="B E"/><g transform="matrix(-1 0 0 -1 90 19.0313)"><use href="#D" x="32" class="B E"/><g transform="matrix(-1 0 0 -1 32 8.0313)"><use href="#C" x="-10" y="-11" class="B E"/></g><use href="#D" x="16" class="B E"/><g transform="matrix(-1 0 0 -1 16 8.0313)"><use href="#C" x="-10" y="-11" class="B E"/></g><use href="#D" y="0.016" class="B E"/></g><path d="M120 15h-20" fill="none" stroke-linecap="butt" class="B"/></symbol><defs ><path id="C" d="M10 15.031c0-5.375 8-5.375 8 0"/><path id="D" d="M8 4.031c0-5.375-8-5.375-8 0"/></defs></svg>