<svg xmlns="http://www.w3.org/2000/svg" viewBox="-10 -10 101 71" fill="#fff" fill-rule="evenodd" stroke="#000" stroke-linecap="round" stroke-linejoin="round" font-family="Roboto" font-size="14" text-anchor="middle"><style><![CDATA[.B{stroke-width:.5}.C{fill:#000}.D{stroke:none}.E{font-size:8px}.F{stroke-linecap:square}]]></style><use href="#A" x=".5" y=".5"/><symbol id="A" overflow="visible"><path d="M45 20h30v20H45z" class="B"/><path d="M45 20q-5 0-5 5v10q0 5 5 5z" class="B"/><path d="M75 20q5 0 5 5v10q0 5-5 5z" class="B"/><path d="M10 30H0" fill="none" class="B F"/><path d="M0 25v10" fill="none" class="B F"/><path d="M20 10V0" fill="none" class="B F"/><path d="M15 0h10" fill="none" class="B F"/><path d="M30 30h10" fill="none" stroke-linecap="butt" class="B"/><path d="M30 45V15q0-5-5-5H15q-5 0-5 5v30q0 5 5 5h10q5 0 5-5z" class="B"/></symbol></svg>