<svg xmlns="http://www.w3.org/2000/svg" viewBox="-10 -10 181 51" fill="#fff" fill-rule="evenodd" stroke="#000" stroke-linecap="round" stroke-linejoin="round" font-family="Roboto" font-size="14" text-anchor="middle"><style><![CDATA[.B{stroke-width:.5}.C{fill:#000}.D{stroke:none}.E{font-size:8px}.F{fill:none}.G{stroke-linecap:square}]]></style><use href="#A" x=".5" y=".5"/><symbol id="A" overflow="visible"><path d="M125.008 10h30v20h-30z" class="B"/><path d="M155.008 10q5 0 5 5v10q0 5-5 5z" class="B"/><path d="M125 10q-5 0-5 5v10q0 5 5 5z" class="B"/><path d="M0 10h100v20H0z" class="B"/><path d="M90 9.979V0" class="B F G"/><path d="M95.008 0h-10" class="B F G"/><path d="M10 9.979V0" class="B F G"/><path d="M15.008 0h-10" class="B F G"/><path d="M120 20h-20" stroke-linecap="butt" class="B F"/><path d="M.256 20h6.75l3 6.75 6-14.25 7 15 7-15 6 15 6-15 6 15 6-15 6 15 6-15 6 15 6-15 6 15 6-15 3 7.5h7" class="B F G"/></symbol></svg>