<svg xmlns="http://www.w3.org/2000/svg" viewBox="-10 -10 71 71" fill="#fff" fill-rule="evenodd" stroke="#000" stroke-linecap="round" stroke-linejoin="round" font-family="Roboto" font-size="14" text-anchor="middle"><use href="#A" x=".5" y=".5"/><symbol id="A" overflow="visible"><path d="M0 40h50" fill="none" stroke-width=".5"/><path d="M35 45V35L15 45V35z" stroke-width=".5"/><path d="M15 0h20v20H15z" stroke-width=".5"/><path d="M24.927 10.21q-1.93-.555-2.809-1.363-.879-.809-.879-1.996 0-1.344 1.074-2.223 1.074-.879 2.793-.879 1.172 0 2.09.453.918.453 1.422 1.25.504.797.504 1.742h-1.508q0-1.031-.656-1.621-.656-.59-1.852-.59-1.109 0-1.731.488-.621.488-.621 1.356 0 .695.59 1.176.59.48 2.008.879 1.418.398 2.219.879.801.48 1.188 1.121.387.641.387 1.508 0 1.383-1.078 2.215-1.078.832-2.883.832-1.172 0-2.187-.449-1.016-.449-1.566-1.23-.551-.781-.551-1.773h1.508q0 1.031.762 1.629.762.598 2.035.598 1.188 0 1.82-.484.633-.484.633-1.32 0-.836-.586-1.293-.586-.457-2.125-.902z" fill="#000" stroke="none"/><path d="M25 40V20" fill="none" stroke-linecap="square" stroke-width=".5"/></symbol></svg>