<svg xmlns="http://www.w3.org/2000/svg" viewBox="-10 -10 91 91" fill="#fff" fill-rule="evenodd" stroke="#000" stroke-linecap="round" stroke-linejoin="round" font-family="Roboto" font-size="14" text-anchor="middle"><style><![CDATA[.B{stroke-width:.5}.C{font-size:8px}.D{fill:#000}.E{stroke:none}.F{fill:none}.G{stroke-dasharray:3.5 3}.H{stroke-linecap:butt}]]></style><use href="#A" x=".5" y=".5"/><symbol id="A" overflow="visible"><circle cx="35" cy="40" r="30" class="B"/><circle cx="35" cy="40" r="27.5" class="B"/><circle cx="35" cy="40" r="20" class="B"/><circle cx="35" cy="40" r="17.5" class="B"/><circle cx="27.498" cy="40" r="5" class="B"/><path d="M0 35v10" class="B F"/><path d="M70 35v10" class="B F"/><path d="M15.001 0h10" class="B F"/><path d="M19.999 10l7.5 30" class="B F G"/><circle cx="42.499" cy="40" r="5" class="B"/><path d="M45.003 0h10" class="B F"/><path d="M49.997 10l-7.5 30" class="B F G"/><path d="M19.999 10V0" class="B F H"/><path d="M50.001 10V0" class="B F H"/><path stroke="#fff" d="M21 37.5h5V43h-5z" class="B"/><path d="M27.5 40H0" class="B F"/><path stroke="#fff" d="M44.002 37.25h5v5.5h-5z" class="B"/><path d="M42.497 40h27.5" class="B F"/></symbol></svg>