<svg xmlns="http://www.w3.org/2000/svg" viewBox="-10 -10 221 71" fill="#fff" fill-rule="evenodd" stroke="#000" stroke-linecap="round" stroke-linejoin="round" font-family="Roboto" font-size="14" text-anchor="middle"><style><![CDATA[.B{stroke-width:.5}.C{fill:#000}.D{stroke:none}.E{font-size:9px}.F{stroke-dasharray:2.5 3}]]></style><use href="#A" x=".5" y=".5"/><symbol id="A" overflow="visible"><path d="M40 0v9.091" class="B"/><path d="M37 0h3" class="B"/><path d="M43 0h-3" class="B"/><g transform="matrix(-1 0 0 -1 160 50)"><path d="M0 0v9.091" class="B"/><path d="M3 0H0" class="B"/></g><g transform="matrix(-1 0 0 -1 163 50)"><path d="M0 0h3" class="B"/></g><path d="M23 0h-3m-3 0h3v9.091" fill="none" class="B"/><path d="M20 40.909V50" class="B"/><path d="M17 50h3" class="B"/><path d="M23 50h-3" class="B"/><path d="M2 9.091h196v31.818H2z" class="B"/><path d="M2 9.09V4.545" class="B"/><path d="M0 4.545v40.909" class="B"/><path d="M2 40.909v4.545" class="B"/><path d="M198 4.545v40.909" class="B"/><path d="M200 4.545v40.909" class="B"/><path d="M30 9.091v31.818" class="B F"/><path d="M170 9.091v31.818" class="B F"/></symbol></svg>