<svg xmlns="http://www.w3.org/2000/svg" viewBox="-10 -10 221 71" fill="#fff" fill-rule="evenodd" stroke="#000" stroke-linecap="round" stroke-linejoin="round" font-family="Roboto" font-size="14" text-anchor="middle"><style><![CDATA[.B{font-size:9px}.C{fill:#000}.D{stroke:none}.E{stroke-width:.5}]]></style><use href="#A" x=".5" y=".5"/><symbol id="A" overflow="visible"><path d="M172 5v40m0-35h12.727 5.091C195.459 10 200 16.69 200 25s-4.541 15-10.182 15H172" class="E"/><path d="M30 5v5m140-5v5m0 35v-5M30 40h132.251H170V10H38.266 30v35" class="E"/><path d="M2 5v40M0 5v40M28 5v5m0 35v-5M2 40h26V10H2" class="E"/><path d="M20 0v10" class="E"/><path d="M17 0h3" class="E"/><path d="M23 0h-3" class="E"/><path d="M40 0v10" class="E"/><path d="M37 0h3" class="E"/><path d="M43 0h-3" class="E"/><g transform="matrix(-1 0 0 -1 163 50)" class="E"><path d="M3 0v10"/><path d="M6 0H3M0 0h3"/></g><path d="M23 50h-3m-3 0h3V40" fill="none" class="E"/></symbol></svg>