<svg xmlns="http://www.w3.org/2000/svg" viewBox="-10 -10 221 71" fill="#fff" fill-rule="evenodd" stroke="#000" stroke-linecap="round" stroke-linejoin="round"><use href="#A" x=".5" y=".5"/><symbol id="A" overflow="visible"><g stroke-width=".5"><path d="M20 50V40m-3 10h6m5-10H10C4.46 40 0 33.31 0 25s4.46-15 10-15h18M20 0v10M17 0h6m5 5v40m2 0v-5m0-35v5 30h131.863 9.72H184.5h5.167C195.391 40 200 33.31 200 25s-4.609-15-10.333-15H184.5 30M40 0v10"/><path d="M37 0h3m3 0h-3"/></g><g transform="matrix(-1 0 0 -1 163 50)" stroke-width=".5"><path d="M3 0v10"/><path d="M6 0H3M0 0h3"/></g></symbol></svg>