<svg xmlns="http://www.w3.org/2000/svg" viewBox="-10 -10 221 71" fill="#fff" fill-rule="evenodd" stroke="#000" stroke-linecap="round" stroke-linejoin="round"><use href="#A" x=".5" y=".5"/><symbol id="A" overflow="visible"><g stroke-width=".5"><path d="M20 50V40m-3 10h6m5-10H10C4.46 40 0 33.31 0 25s4.46-15 10-15h18M20 0v10M17 0h6m5 5v40m144-5h18c5.54 0 10-6.69 10-15s-4.46-15-10-15h-18m0-5v40"/><path d="M30 5v5m0 35v-5m140 5v-5-30m0-5v5H38.242 30v30h140M40 0v10"/><path d="M37 0h3m3 0h-3"/></g><g transform="matrix(-1 0 0 -1 163 50)" stroke-width=".5"><path d="M3 0v10"/><path d="M6 0H3M0 0h3"/></g></symbol></svg>