<svg xmlns="http://www.w3.org/2000/svg" viewBox="-10 -10 221 101" fill="#fff" fill-rule="evenodd" stroke="#000" stroke-linecap="round" stroke-linejoin="round"><use href="#A" x=".5" y=".5"/><symbol id="A" overflow="visible"><g stroke-width=".5"><path d="M20 80V70m-3 10h6m5-10H10C4.46 70 0 63.31 0 55s4.46-15 10-15h18m-8-10v10m-3-10h6m5 5v40"/><path d="M180.006 70v10m2.98 0H180m-2.98 0h2.986" fill="none"/><path d="M30 40h.007m0-5v5m0 35v-5-30h20l50-30 80 .005c11.112.284 20 13.555 20 29.998s-8.888 29.714-20 29.998h-150M110 0v10"/><path d="M107 0h3m3 0h-3"/></g></symbol></svg>