<svg xmlns="http://www.w3.org/2000/svg" viewBox="-10 -10 61 191" fill="#fff" fill-rule="evenodd" stroke="#000" stroke-linecap="round" stroke-linejoin="round" font-family="Roboto" font-size="14" text-anchor="middle"><style><![CDATA[.B{stroke-width:.5}.C{fill:#000}.D{stroke:none}.E{font-size:8px}.F{stroke-linecap:butt}]]></style><use href="#A" x=".5" y=".5"/><symbol id="A" overflow="visible"><path d="M0 65h40" fill="none" class="B F"/><g transform="matrix(0 1 -1 0 30 60)"><path d="M0 0h15v20H0z" class="B"/></g><g transform="matrix(0 1 -1 0 30 5)"><path d="M0 0h30v20H0z" class="B"/></g><g transform="matrix(0 1 -1 0 30 0)"><path d="M5 0Q0 0 0 5v10q0 5 5 5z" class="B"/></g><g transform="matrix(0 1 -1 0 30 35)"><path d="M0 0q5 0 5 5v10q0 5-5 5z" class="B"/></g><g transform="matrix(0 1 -1 0 35 75)"><path d="M0 0h95v30H0z" class="B"/></g><path d="M20 40v20" fill="none" class="B F"/><path d="M40 60v10" fill="none" class="B F"/><path d="M0 60v10" fill="none" class="B F"/></symbol></svg>